<svg width="146" height="23" viewBox="0 0 146 23" fill="none" xmlns="http://www.w3.org/2000/svg">
<path d="M8.34 17.12L0.16 12.96L0.12 11.56L8.32 7L9.34 8.98L3.58 12.08L3.6 12.2L9.42 15.06L8.34 17.12ZM11.1225 17L11.0025 16.36C11.2825 16.1333 11.5892 15.9267 11.9225 15.74C12.2558 15.54 12.6092 15.3533 12.9825 15.18L13.0025 17H11.1225ZM22.7225 17L19.1425 16.84L20.6625 12.46L22.9625 12.64C22.9758 13.0267 22.9692 13.48 22.9425 14C22.9292 14.52 22.9025 15.0467 22.8625 15.58C22.8225 16.1 22.7758 16.5733 22.7225 17ZM13.7825 5.22L11.1825 4.78L11.2025 3.68H13.8225L13.7825 5.22ZM20.1825 7.98L19.4025 3.86L22.9025 3.68C22.9158 3.98667 22.9092 4.39333 22.8825 4.9C22.8558 5.39333 22.8092 5.91333 22.7425 6.46C22.6758 7.00667 22.5892 7.51333 22.4825 7.98H20.1825ZM12.7025 17V3.68H16.9025V17H12.7025ZM20.9625 11.44L16.1625 11.24V9.54L20.9625 9.14V11.44ZM22.6425 6.06L16.0625 5.6L14.5625 3.68H22.9025L22.6425 6.06ZM14.7025 17L16.2025 15.04L22.6825 14.46L22.7025 17H14.7025ZM28.4456 17.4C27.7923 17.4 27.0856 17.3133 26.3256 17.14C25.5656 16.9667 24.8123 16.6933 24.0656 16.32L25.3256 13.4C25.8856 13.8533 26.459 14.26 27.0456 14.62C27.6323 14.98 28.219 15.2933 28.8056 15.56C28.9123 15.48 28.9856 15.38 29.0256 15.26C29.079 15.14 29.1056 15.0333 29.1056 14.94C29.1056 14.7 28.9923 14.4867 28.7656 14.3C28.539 14.1133 28.2456 13.9267 27.8856 13.74C27.539 13.5533 27.159 13.3533 26.7456 13.14C26.3456 12.9267 25.9656 12.6867 25.6056 12.42C25.259 12.1533 24.9723 11.8333 24.7456 11.46C24.519 11.0867 24.4056 10.6533 24.4056 10.16C24.4056 9.53333 24.599 8.98 24.9856 8.5C25.3723 8.00667 25.9123 7.62 26.6056 7.34C27.299 7.06 28.1056 6.92 29.0256 6.92C29.559 6.92 30.119 6.97333 30.7056 7.08C31.3056 7.18667 31.839 7.36 32.3056 7.6L31.5656 9.42C31.1656 9.18 30.7123 8.98667 30.2056 8.84C29.7123 8.68 29.259 8.59333 28.8456 8.58C28.4856 8.64667 28.2523 8.75333 28.1456 8.9C28.039 9.03333 27.9856 9.17333 27.9856 9.32C27.9856 9.57333 28.099 9.8 28.3256 10C28.5656 10.2 28.8656 10.4 29.2256 10.6C29.5856 10.7867 29.9656 10.9867 30.3656 11.2C30.779 11.4133 31.1656 11.66 31.5256 11.94C31.8856 12.22 32.179 12.5467 32.4056 12.92C32.6456 13.2933 32.7656 13.7333 32.7656 14.24C32.7656 15.1333 32.3856 15.8867 31.6256 16.5C30.879 17.1 29.819 17.4 28.4456 17.4ZM30.0256 10.48L28.7656 7.4L32.3056 7.6C32.359 8.08 32.359 8.56667 32.3056 9.06C32.2523 9.54 32.1523 10.0133 32.0056 10.48H30.0256ZM37.5592 17.34C37.0659 17.3533 36.5992 17.2533 36.1592 17.04C35.7326 16.84 35.3792 16.56 35.0992 16.2C34.8326 15.84 34.6992 15.4467 34.6992 15.02V8L36.1192 4.74H37.9192L38.7192 8.14V13.72C38.7192 14.0133 38.7859 14.22 38.9192 14.34C39.0526 14.4467 39.2459 14.5 39.4992 14.5C39.7259 14.5 39.9792 14.4933 40.2592 14.48C40.5392 14.4533 40.7926 14.4333 41.0192 14.42L41.0992 15.48L37.5592 17.34ZM33.1392 10L33.1192 8.88C33.6259 8.41333 34.2059 7.96 34.8592 7.52C35.5259 7.08 36.2659 6.64 37.0792 6.2L37.6392 8.48L37.5592 9.98L33.1392 10ZM37.8392 10.02V7.52H41.2992V8.66L40.2792 10.02H37.8392ZM50.3172 17.34C50.0105 17.34 49.7105 17.2733 49.4172 17.14C49.1239 17.0067 48.8505 16.8133 48.5972 16.56C48.3439 16.2933 48.1239 15.9733 47.9372 15.6L47.5572 15.54V10.64C47.5572 10.0133 47.4572 9.56 47.2572 9.28C47.0705 8.98667 46.8705 8.78667 46.6572 8.68C46.5239 8.69333 46.3905 8.72 46.2572 8.76C46.1239 8.78667 46.0105 8.82667 45.9172 8.88L45.3372 11.12L43.0572 11.14C42.9105 10.6467 42.8105 10.12 42.7572 9.56C42.7039 8.98667 42.7172 8.44 42.7972 7.92C43.2505 7.76 43.7305 7.62 44.2372 7.5C44.7572 7.36667 45.2639 7.26 45.7572 7.18C46.2639 7.08667 46.7372 7.02 47.1772 6.98C47.6172 6.92667 47.9839 6.9 48.2772 6.9C48.6772 6.9 49.0572 6.94667 49.4172 7.04C49.7772 7.13333 50.1172 7.29333 50.4372 7.52C50.7705 7.73333 51.0705 8.02 51.3372 8.38C51.4439 8.54 51.5105 8.78 51.5372 9.1C51.5639 9.42 51.5772 9.86 51.5772 10.42V14.32C51.5772 14.4533 51.6172 14.5733 51.6972 14.68C51.7772 14.7867 51.8972 14.84 52.0572 14.84C52.2172 14.84 52.3705 14.84 52.5172 14.84C52.6772 14.8267 52.8772 14.8133 53.1172 14.8L53.1772 15.7L50.3172 17.34ZM45.9972 17.24C45.1839 17.3733 44.4839 17.3133 43.8972 17.06C43.3105 16.82 42.8639 16.48 42.5572 16.04C42.2505 15.5867 42.0972 15.1267 42.0972 14.66C42.0972 14.2333 42.2305 13.7933 42.4972 13.34C42.7639 12.8867 43.1972 12.5133 43.7972 12.22L48.2372 12.12V13.44H47.5972C47.3972 13.44 47.1972 13.46 46.9972 13.5C46.8105 13.5267 46.6439 13.5733 46.4972 13.64C46.3505 13.7067 46.2305 13.8 46.1372 13.92C46.0572 14.04 46.0172 14.1867 46.0172 14.36C46.0172 14.4933 46.0439 14.64 46.0972 14.8C46.1505 14.96 46.2239 15.0933 46.3172 15.2C46.5305 15.1733 46.7372 15.14 46.9372 15.1C47.1505 15.0467 47.3572 14.9933 47.5572 14.94C47.7705 14.8733 47.9572 14.82 48.1172 14.78L48.4572 15.62L45.9972 17.24ZM46.9172 6.42L44.9572 4.9L48.0972 0.959999L50.4972 3.08C49.8972 3.56 49.2905 4.1 48.6772 4.7C48.0639 5.3 47.4772 5.87333 46.9172 6.42ZM57.763 22.04C57.283 22.04 56.7896 21.9867 56.283 21.88C55.7896 21.7867 55.323 21.62 54.883 21.38C54.443 21.14 54.0696 20.8133 53.763 20.4C53.4563 20 53.263 19.4933 53.183 18.88L56.323 16.12L58.243 15.98C57.7763 16.2333 57.3896 16.48 57.083 16.72C56.7896 16.9467 56.5696 17.16 56.423 17.36C56.2763 17.5733 56.203 17.78 56.203 17.98C56.203 18.3933 56.423 18.6933 56.863 18.88C57.3163 19.08 57.843 19.18 58.443 19.18C58.8163 19.18 59.1896 19.14 59.563 19.06C59.9496 18.9933 60.2963 18.8867 60.603 18.74C60.923 18.6067 61.1763 18.44 61.363 18.24C60.7763 18.04 60.0963 17.86 59.323 17.7C58.563 17.54 57.7496 17.4067 56.883 17.3C56.0296 17.1933 55.1563 17.12 54.263 17.08L53.823 15.44C54.1696 15.0933 54.5163 14.78 54.863 14.5C55.2096 14.22 55.5696 13.96 55.943 13.72C56.3296 13.48 56.7363 13.26 57.163 13.06L58.503 13.4C58.223 13.56 57.963 13.7333 57.723 13.92C57.483 14.0933 57.263 14.2733 57.063 14.46C57.6496 14.46 58.2363 14.4867 58.823 14.54C59.423 14.5933 60.0096 14.6733 60.583 14.78C61.1696 14.8733 61.7363 14.98 62.283 15.1C62.843 15.22 63.3696 15.3533 63.863 15.5C64.143 16.06 64.2496 16.64 64.183 17.24C64.1296 17.8533 63.9296 18.44 63.583 19C63.2496 19.5733 62.7896 20.0867 62.203 20.54C61.6296 21.0067 60.963 21.3733 60.203 21.64C59.4563 21.9067 58.643 22.04 57.763 22.04ZM58.363 13.88C57.243 13.88 56.3296 13.7133 55.623 13.38C54.9163 13.0333 54.3896 12.6 54.043 12.08C53.7096 11.5467 53.543 11.0133 53.543 10.48C53.543 9.89333 53.7296 9.32667 54.103 8.78C54.4763 8.23333 55.0296 7.78 55.763 7.42C56.5096 7.06 57.4163 6.88 58.483 6.88C59.483 6.88 60.3496 7.04 61.083 7.36C61.8163 7.68 62.3763 8.10667 62.763 8.64C63.163 9.17333 63.363 9.75333 63.363 10.38C63.363 10.98 63.1696 11.5467 62.783 12.08C62.4096 12.6133 61.8496 13.0467 61.103 13.38C60.3696 13.7133 59.4563 13.88 58.363 13.88ZM58.943 12.28C59.1163 12.1733 59.2496 11.96 59.343 11.64C59.4496 11.32 59.503 10.9733 59.503 10.6C59.503 10.3333 59.463 10.0667 59.383 9.8C59.3163 9.53333 59.2096 9.3 59.063 9.1C58.9296 8.88667 58.763 8.73333 58.563 8.64C58.363 8.54667 58.1296 8.54 57.863 8.62C57.7296 8.71333 57.6163 8.94667 57.523 9.32C57.443 9.68 57.403 10.0467 57.403 10.42C57.403 10.78 57.4563 11.12 57.563 11.44C57.6696 11.7467 57.8363 11.9867 58.063 12.16C58.303 12.32 58.5963 12.36 58.943 12.28ZM61.303 9.96C61.183 9.52 61.123 9.06 61.123 8.58C61.1363 8.08667 61.243 7.62 61.443 7.18C61.643 6.74 61.963 6.38 62.403 6.1C62.843 5.82 63.4296 5.67333 64.163 5.66L64.783 8.74C63.5696 8.52667 62.5563 8.78 61.743 9.5L61.303 9.96ZM66.5194 17V8.1L69.3594 6.94L70.5394 8V17H66.5194ZM65.0194 17L64.9994 16.3C65.426 16.0333 65.866 15.8133 66.3194 15.64C66.786 15.4667 67.226 15.3333 67.6394 15.24L67.4794 17H65.0194ZM68.3794 17L69.0394 14.7C69.4794 14.8333 69.9727 15.0133 70.5194 15.24C71.0794 15.4533 71.566 15.7133 71.9794 16.02L71.9594 17H68.3794ZM65.0194 8.7L64.9794 7.72C65.6194 7.49333 66.306 7.31333 67.0394 7.18C67.786 7.04667 68.5594 6.96667 69.3594 6.94L69.2594 8.66L67.5194 9.34L65.0194 8.7ZM68.7394 6.14C68.2194 5.9 67.7327 5.60667 67.2794 5.26C66.826 4.9 66.426 4.51333 66.0794 4.1C66.3594 3.55333 66.686 3.05333 67.0594 2.6C67.4327 2.14667 67.846 1.74667 68.2994 1.4C68.806 1.68 69.2727 2.02 69.6994 2.42C70.126 2.82 70.4994 3.25333 70.8194 3.72C70.566 4.2 70.2594 4.64667 69.8994 5.06C69.5527 5.47333 69.166 5.83333 68.7394 6.14ZM80.7078 17.34C80.4011 17.34 80.1011 17.2733 79.8078 17.14C79.5145 17.0067 79.2411 16.8133 78.9878 16.56C78.7345 16.2933 78.5145 15.9733 78.3278 15.6L77.9478 15.54V10.64C77.9478 10.0133 77.8478 9.56 77.6478 9.28C77.4611 8.98667 77.2611 8.78667 77.0478 8.68C76.9145 8.69333 76.7811 8.72 76.6478 8.76C76.5145 8.78667 76.4011 8.82667 76.3078 8.88L75.7278 11.12L73.4478 11.14C73.3011 10.6467 73.2011 10.12 73.1478 9.56C73.0945 8.98667 73.1078 8.44 73.1878 7.92C73.6411 7.76 74.1211 7.62 74.6278 7.5C75.1478 7.36667 75.6545 7.26 76.1478 7.18C76.6545 7.08667 77.1278 7.02 77.5678 6.98C78.0078 6.92667 78.3745 6.9 78.6678 6.9C79.0678 6.9 79.4478 6.94667 79.8078 7.04C80.1678 7.13333 80.5078 7.29333 80.8278 7.52C81.1611 7.73333 81.4611 8.02 81.7278 8.38C81.8345 8.54 81.9011 8.78 81.9278 9.1C81.9545 9.42 81.9678 9.86 81.9678 10.42V14.32C81.9678 14.4533 82.0078 14.5733 82.0878 14.68C82.1678 14.7867 82.2878 14.84 82.4478 14.84C82.6078 14.84 82.7611 14.84 82.9078 14.84C83.0678 14.8267 83.2678 14.8133 83.5078 14.8L83.5678 15.7L80.7078 17.34ZM76.3878 17.24C75.5745 17.3733 74.8745 17.3133 74.2878 17.06C73.7011 16.82 73.2545 16.48 72.9478 16.04C72.6411 15.5867 72.4878 15.1267 72.4878 14.66C72.4878 14.2333 72.6211 13.7933 72.8878 13.34C73.1545 12.8867 73.5878 12.5133 74.1878 12.22L78.6278 12.12V13.44H77.9878C77.7878 13.44 77.5878 13.46 77.3878 13.5C77.2011 13.5267 77.0345 13.5733 76.8878 13.64C76.7411 13.7067 76.6211 13.8 76.5278 13.92C76.4478 14.04 76.4078 14.1867 76.4078 14.36C76.4078 14.4933 76.4345 14.64 76.4878 14.8C76.5411 14.96 76.6145 15.0933 76.7078 15.2C76.9211 15.1733 77.1278 15.14 77.3278 15.1C77.5411 15.0467 77.7478 14.9933 77.9478 14.94C78.1611 14.8733 78.3478 14.82 78.5078 14.78L78.8478 15.62L76.3878 17.24ZM84.8983 17V8.1L87.7383 6.94L88.9183 9.32V17H84.8983ZM86.4183 12.08L87.1383 10.78L90.3183 7.06C90.7716 6.91333 91.2449 6.88667 91.7383 6.98C92.2316 7.07333 92.6649 7.26667 93.0383 7.56C93.4249 7.85333 93.6849 8.22667 93.8183 8.68L91.3183 11.74C90.9716 11.4333 90.5916 11.1333 90.1783 10.84C89.7649 10.5333 89.3249 10.3467 88.8583 10.28L86.4183 12.08ZM83.3983 8.7L83.3583 7.72C83.9983 7.49333 84.6849 7.31333 85.4183 7.18C86.1649 7.04667 86.9383 6.96667 87.7383 6.94L87.6383 8.66L85.8983 9.34L83.3983 8.7ZM83.4183 17L83.3983 16.3C83.8249 16.0333 84.2649 15.8133 84.7183 15.64C85.1849 15.4667 85.6249 15.3333 86.0383 15.24L85.8783 17H83.4183ZM87.7783 17L88.4383 14.86C88.7316 14.94 89.0316 15.04 89.3383 15.16C89.6449 15.2667 89.9516 15.3933 90.2583 15.54C90.5649 15.6733 90.8583 15.8333 91.1383 16.02L91.1183 17H87.7783ZM95.2303 17V8.1L98.0703 6.94L99.2503 8V17H95.2303ZM93.7303 17L93.7103 16.3C94.137 16.0333 94.577 15.8133 95.0303 15.64C95.497 15.4667 95.937 15.3333 96.3503 15.24L96.1903 17H93.7303ZM97.0903 17L97.7503 14.7C98.1903 14.8333 98.6836 15.0133 99.2303 15.24C99.7903 15.4533 100.277 15.7133 100.69 16.02L100.67 17H97.0903ZM93.7303 8.7L93.6903 7.72C94.3303 7.49333 95.017 7.31333 95.7503 7.18C96.497 7.04667 97.2703 6.96667 98.0703 6.94L97.9703 8.66L96.2303 9.34L93.7303 8.7ZM97.4503 6.14C96.9303 5.9 96.4436 5.60667 95.9903 5.26C95.537 4.9 95.137 4.51333 94.7903 4.1C95.0703 3.55333 95.397 3.05333 95.7703 2.6C96.1436 2.14667 96.557 1.74667 97.0103 1.4C97.517 1.68 97.9836 2.02 98.4103 2.42C98.837 2.82 99.2103 3.25333 99.5303 3.72C99.277 4.2 98.9703 4.64667 98.6103 5.06C98.2636 5.47333 97.877 5.83333 97.4503 6.14ZM106.354 17.4C105.461 17.4 104.607 17.1933 103.794 16.78C102.994 16.3667 102.341 15.7667 101.834 14.98C101.327 14.18 101.074 13.22 101.074 12.1C101.074 10.98 101.321 10.04 101.814 9.28C102.307 8.50667 102.947 7.92 103.734 7.52C104.521 7.12 105.361 6.92 106.254 6.92C107.134 6.92 107.967 7.12 108.754 7.52C109.554 7.92 110.201 8.51333 110.694 9.3C111.187 10.0733 111.434 11.0333 111.434 12.18C111.434 13.2867 111.194 14.2333 110.714 15.02C110.247 15.7933 109.627 16.3867 108.854 16.8C108.094 17.2 107.261 17.4 106.354 17.4ZM106.414 15.44C106.547 15.44 106.687 15.4133 106.834 15.36C106.967 15.24 107.074 15.04 107.154 14.76C107.234 14.48 107.294 14.14 107.334 13.74C107.374 13.3267 107.394 12.8867 107.394 12.42C107.394 11.7933 107.354 11.2333 107.274 10.74C107.194 10.2333 107.061 9.83333 106.874 9.54C106.687 9.23333 106.441 9.08 106.134 9.08C106.041 9.08 105.941 9.09333 105.834 9.12C105.741 9.13333 105.661 9.16667 105.594 9.22C105.447 9.44667 105.327 9.82667 105.234 10.36C105.154 10.8933 105.114 11.5133 105.114 12.22C105.114 12.82 105.154 13.3667 105.234 13.86C105.327 14.34 105.467 14.7267 105.654 15.02C105.841 15.3 106.094 15.44 106.414 15.44ZM116.375 17.4C115.722 17.4 115.015 17.3133 114.255 17.14C113.495 16.9667 112.742 16.6933 111.995 16.32L113.255 13.4C113.815 13.8533 114.389 14.26 114.975 14.62C115.562 14.98 116.149 15.2933 116.735 15.56C116.842 15.48 116.915 15.38 116.955 15.26C117.009 15.14 117.035 15.0333 117.035 14.94C117.035 14.7 116.922 14.4867 116.695 14.3C116.469 14.1133 116.175 13.9267 115.815 13.74C115.469 13.5533 115.089 13.3533 114.675 13.14C114.275 12.9267 113.895 12.6867 113.535 12.42C113.189 12.1533 112.902 11.8333 112.675 11.46C112.449 11.0867 112.335 10.6533 112.335 10.16C112.335 9.53333 112.529 8.98 112.915 8.5C113.302 8.00667 113.842 7.62 114.535 7.34C115.229 7.06 116.035 6.92 116.955 6.92C117.489 6.92 118.049 6.97333 118.635 7.08C119.235 7.18667 119.769 7.36 120.235 7.6L119.495 9.42C119.095 9.18 118.642 8.98667 118.135 8.84C117.642 8.68 117.189 8.59333 116.775 8.58C116.415 8.64667 116.182 8.75333 116.075 8.9C115.969 9.03333 115.915 9.17333 115.915 9.32C115.915 9.57333 116.029 9.8 116.255 10C116.495 10.2 116.795 10.4 117.155 10.6C117.515 10.7867 117.895 10.9867 118.295 11.2C118.709 11.4133 119.095 11.66 119.455 11.94C119.815 12.22 120.109 12.5467 120.335 12.92C120.575 13.2933 120.695 13.7333 120.695 14.24C120.695 15.1333 120.315 15.8867 119.555 16.5C118.809 17.1 117.749 17.4 116.375 17.4ZM117.955 10.48L116.695 7.4L120.235 7.6C120.289 8.08 120.289 8.56667 120.235 9.06C120.182 9.54 120.082 10.0133 119.935 10.48H117.955ZM128.922 19.38L126.562 18.4L132.722 2.22L135.042 3.24L128.922 19.38ZM137.197 17.12L136.117 15.06L141.937 12.2L141.957 12.08L136.197 8.98L137.217 7L145.417 11.56L145.377 12.96L137.197 17.12Z" fill="#F7F7F7"/>
</svg>
